<svg xmlns="http://www.w3.org/2000/svg" viewBox="0 0 636 842" role="img" aria-labelledby="title desc">
  <title id="title">Serenius geometric S logo</title>
  <desc id="desc">A black geometric interlocking S mark inside a hexagonal frame.</desc>
  <path d="M 318 155 L 143 263 L 143 326 L 316 443 L 322 444 L 349 431 L 349 402 L 312 372 L 309 372 L 308 395 L 263 382 L 255 378 L 255 350 L 257 348 L 275 346 L 311 325 L 321 321 L 551 458 L 551 602 L 323 750 L 320 750 L 84 602 L 84 459 L 43 434 L 40 434 L 40 627 L 316 799 L 324 801 L 594 628 L 594 432 L 321 270 L 308 276 L 223 326 L 219 326 L 186 304 L 187 287 L 311 210 L 321 206 L 488 308 L 496 311 L 495 259 L 323 156 Z M 316 40 L 40 207 L 40 379 L 319 556 L 328 552 L 418 496 L 432 503 L 451 516 L 451 544 L 449 547 L 324 626 L 319 627 L 244 579 L 145 512 L 142 512 L 142 568 L 318 678 L 323 678 L 494 570 L 494 490 L 382 420 L 379 420 L 378 470 L 326 502 L 318 504 L 84 355 L 84 231 L 302 99 L 320 90 L 551 228 L 551 346 L 589 371 L 594 372 L 595 203 L 325 42 Z" fill="#000000" fill-rule="evenodd"/>
</svg>
